<svg xmlns="http://www.w3.org/2000/svg" width="80.031" height="80.031" viewBox="0 0 80.031 80.031">
  <g id="_1" data-name="1" transform="translate(0 0)">
    <path id="bound" d="M0,0H80.031V80.031H0Z" transform="translate(0 0)" fill="none"/>
    <path id="Combined_Shape" data-name="Combined Shape" d="M1,0H65.692a1,1,0,0,1,1,1V42.35a1,1,0,0,1-1,1H1a1,1,0,0,1-1-1V1A1,1,0,0,1,1,0Z" transform="translate(6.669 16.673)" fill="#4f2498"/>
    <path id="Rectangle" d="M1,0H59.023a1,1,0,0,1,1,1V2.335a1,1,0,0,1-1,1H1a1,1,0,0,1-1-1V1A1,1,0,0,1,1,0Z" transform="translate(10.004 63.358)" fill="#4f2498"/>
  </g>
</svg>
