<svg id="Icon" xmlns="http://www.w3.org/2000/svg" width="80.031" height="80.031" viewBox="0 0 80.031 80.031">
  <path id="bound" d="M0,80.031H80.031V0H0Z" transform="translate(80.031 80.031) rotate(180)" fill="none"/>
  <path id="Rectangle" d="M1.5,0H18.508a1.5,1.5,0,0,1,1.5,1.5V16.673H0V1.5A1.5,1.5,0,0,1,1.5,0Z" transform="translate(50.019 73.362) rotate(180)" fill="#b9c2ca"/>
  <path id="Path" d="M16.673,0A16.673,16.673,0,1,1,0,16.673,16.673,16.673,0,0,1,16.673,0Z" transform="translate(56.688 56.688) rotate(180)" fill="#fff"/>
  <path id="Rectangle_Copy" data-name="Rectangle Copy" d="M0,0H20.008V15.173a1.5,1.5,0,0,1-1.5,1.5H1.5a1.5,1.5,0,0,1-1.5-1.5Z" transform="translate(50.019 23.342) rotate(180)" fill="#b9c2ca"/>
  <path id="Oval" d="M0,23.343A23.342,23.342,0,1,0,23.342,0,23.343,23.343,0,0,0,0,23.343Z" transform="translate(63.358 63.358) rotate(180)" fill="#b9c2ca"/>
</svg>
